# xmcd CD database file
#
# Track frame offsets:
#	150
#	18125
#	33258
#	52316
#	70489
#	91344
#	110963
#	126263
#	148334
#	162600
#
# Disc length: 2379 seconds
#
# Revision: 0
# Processed by: cddbd v1.5.2PL0 Copyright (c) Steve Scherf et al.
# Submitted via: CDex 1.60beta1
#
DISCID=9a09490a
DTITLE=Tracy Chapman - Telling Stories
DYEAR=2000
DGENRE=Blues
TTITLE0=Telling Stories
TTITLE1=Less Than Strangers
TTITLE2=Speak the Word
TTITLE3=It's OK
TTITLE4=Wedding Song
TTITLE5=Unsung Psalm
TTITLE6=Nothing Yet
TTITLE7=Paper and Ink
TTITLE8=Devotion
TTITLE9=Only One, The - (with Emmylou Harris)
EXTD=YEAR: 2000
EXTT0=
EXTT1=
EXTT2=
EXTT3=
EXTT4=
EXTT5=
EXTT6=
EXTT7=
EXTT8=
EXTT9=
PLAYORDER=
